# xmcd
#
# Track frame offsets:
#	150
#	37492
#	58427
#	81207
#	107695
#	130985
#	152287
#	180465
#	203902
#	217397
#
# Disc length: 3154 seconds
#
# Revision: 1
# Processed by: cddbd v1.5.2PL0 Copyright (c) Steve Scherf et al.
# Submitted via: audiograbber 1.83.01
#
DISCID=970c500a
DTITLE=Various - Erholungstherapie
DYEAR=1996
DGENRE=Meditative
TTITLE0=Key Of Life - Morningbreeze
TTITLE1=Key Of Life - Bature Calling
TTITLE2=Key Of Life - Far Distance
TTITLE3=Key Of Life - Temple Of The Sun
TTITLE4=Key Of Life - Romantic Impressions
TTITLE5=Key Of Life - Crystal Water
TTITLE6=Key Of Life - Here Is Silence
TTITLE7=Key Of Life - Reflections
TTITLE8=Key Of Life - Chinese Paradise
TTITLE9=Beautiful World - I'll Be There
EXTD=YEAR: 1996
EXTT0=
EXTT1=
EXTT2=
EXTT3=
EXTT4=
EXTT5=
EXTT6=
EXTT7=
EXTT8=
EXTT9=
PLAYORDER=
